<svg xmlns="http://www.w3.org/2000/svg" viewBox="0 0 284.62 325.28"><defs><style>.cls-1{fill:#1a1a1a;}.cls-2{fill:#4d4d4d;}</style></defs><g id="Layer_2" data-name="Layer 2"><g id="Layer_1-2" data-name="Layer 1"><path class="cls-1" d="M143.82,0a142.75,142.75,0,0,0-71,18.1,20.34,20.34,0,0,0,19.85,35.5A101.64,101.64,0,0,1,244,142.31v20.33a20.33,20.33,0,1,0,40.66,0V142.31a4.87,4.87,0,0,0-.08-1.11A142.23,142.23,0,0,0,143.74,0Z"/><path class="cls-1" d="M38.12,57.58a16.35,16.35,0,0,0-4,.48,20.26,20.26,0,0,0-12.71,9A142.77,142.77,0,0,0,0,142.31V245.23a20.33,20.33,0,0,0,40.66,0V142.31A102,102,0,0,1,56,88.55,20.26,20.26,0,0,0,49.47,60.6,19.79,19.79,0,0,0,38.12,57.58Z"/><path class="cls-2" d="M142.31,61A81.58,81.58,0,0,0,61,142.31v20.33a20.33,20.33,0,0,0,40.66,0V142.31a40.66,40.66,0,0,1,81.32,0V244a71.06,71.06,0,0,0,3.57,19.14A93.34,93.34,0,0,0,209.25,299,20.33,20.33,0,0,0,238,270.25c-7.78-7.78-11.2-14.93-12.86-20s-1.51-6.28-1.51-6.28V142.31A81.58,81.58,0,0,0,142.31,61Z"/><path class="cls-1" d="M142.31,122A20.37,20.37,0,0,0,122,142.31V244a153.14,153.14,0,0,0,2.94,26.84c2.93,14.78,8.41,33.6,23.34,48.53A20.33,20.33,0,0,0,177,290.58c-5.4-5.4-10.08-17.08-12.23-27.72a106.43,106.43,0,0,1-2.14-18.9V142.31A20.37,20.37,0,0,0,142.31,122Z"/><path class="cls-2" d="M81.32,203.3A20.37,20.37,0,0,0,61,223.63v61a20.33,20.33,0,0,0,40.66,0v-61A20.37,20.37,0,0,0,81.32,203.3Z"/><circle class="cls-1" cx="264.29" cy="223.63" r="20.33"/></g></g></svg>