<svg xmlns="http://www.w3.org/2000/svg" viewBox="0 0 640.36 637.82"><defs><style>.cls-1{fill:#4d4d4d;}</style></defs><g id="Layer_2" data-name="Layer 2"><g id="Layer_1-2" data-name="Layer 1"><path d="M640.27,54c-4.12,26.57-14.39,52.21-32.21,72.3a871.48,871.48,0,0,1-115.8,113.32C426.5,295.36,358.54,348.49,291.31,402.41,246,436.9,199.8,470.12,153.74,503.53c-21.51,19.72-42.62,44.75-75.29,41-45.68-12.18-30.36-70.8-6.76-97.2,35.58-45.22,73.55-88.56,112.25-131.13C279.05,211.06,452.71,2.55,601.87,0,629,5.2,641.56,27.14,640.27,54Z"/><path class="cls-1" d="M572.07,579.75c.51,21.14-8.24,37.25-24.45,50C495,683.18,386.8,455.85,361.29,417.86c-8.36-16.83-9.18-39.51,5.52-52.33,28.74-25.41,57.78-50.5,86.74-75.66,19.05-19.4,48.08-39.66,64.38-5.55C542.75,380.94,564.17,480,572.07,579.75Z"/><path class="cls-1" d="M4,43.8C5.93,10.5,48.56-1.46,76.15,7.07c86,23.8,171.76,50.44,254.33,84.18,16.75,10,19.81,28.64,6.21,42.59C303.22,168,267.93,200.32,235.23,235.21c-11.16,11.85-17.29,13.69-30.75,4.74-15.14-10.08-30.09-20.69-43.91-32.49C123.37,169.92,7.66,92,4,43.8Z"/><path class="cls-1" d="M238,559.82c-4.45,84.18-97,40.66-83.93-23.9,4.66-18.74,25.49-27.45,38.73-39.78,9.5-7.4,20-4.43,29.78-1C235.59,502.66,233.59,543.47,238,559.82Z"/><path class="cls-1" d="M0,381.28c15.09-40,58.54-37.36,90.29-18.87,39.89,21.79-7.54,55.95-24.89,76-2.48,2.51-8,4.05-11.45,3.2C22.35,435.49,7.8,411.35,0,381.28Z"/></g></g></svg>